<?xml version="1.0" encoding="UTF-8" standalone="no"?><svg xmlns="http://www.w3.org/2000/svg" xmlns:xlink="http://www.w3.org/1999/xlink" contentScriptType="application/ecmascript" contentStyleType="text/css" height="292px" preserveAspectRatio="none" style="width:836px;height:292px;background:#FFFFFF;" version="1.1" viewBox="0 0 836 292" width="836px" zoomAndPan="magnify"><defs><filter height="300%" id="fxfvwm4046egj" width="300%" x="-1" y="-1"><feGaussianBlur result="blurOut" stdDeviation="2.0"/><feColorMatrix in="blurOut" result="blurOut2" type="matrix" values="0 0 0 0 0 0 0 0 0 0 0 0 0 0 0 0 0 0 .4 0"/><feOffset dx="4.0" dy="4.0" in="blurOut2" result="blurOut3"/><feBlend in="SourceGraphic" in2="blurOut3" mode="normal"/></filter></defs><g><!--MD5=[8d10b9619f233caeee54837354dd5717]
class Cat--><rect codeLine="1" fill="#FEFECE" filter="url(#fxfvwm4046egj)" height="73.6094" id="Cat" style="stroke:#A80036;stroke-width:1.5;" width="240" x="7" y="191.5"/><ellipse cx="113.25" cy="207.5" fill="#ADD1B2" rx="11" ry="11" style="stroke:#A80036;stroke-width:1.0;"/><path d="M115.5938,203.1719 C114.6563,202.7344 114.0625,202.5938 113.1875,202.5938 C110.5625,202.5938 108.5625,204.6719 108.5625,207.3906 L108.5625,208.5156 C108.5625,211.0938 110.6719,212.9844 113.5625,212.9844 C114.7813,212.9844 115.9375,212.6875 116.6875,212.1406 C117.2656,211.7344 117.5938,211.2813 117.5938,210.8906 C117.5938,210.4375 117.2031,210.0469 116.7344,210.0469 C116.5156,210.0469 116.3125,210.125 116.125,210.3125 C115.6719,210.7969 115.6719,210.7969 115.4844,210.8906 C115.0625,211.1563 114.375,211.2813 113.6094,211.2813 C111.5625,211.2813 110.2656,210.1875 110.2656,208.4844 L110.2656,207.3906 C110.2656,205.6094 111.5156,204.2969 113.25,204.2969 C113.8281,204.2969 114.4375,204.4531 114.9063,204.7031 C115.3906,204.9844 115.5625,205.2031 115.6563,205.6094 C115.7188,206.0156 115.75,206.1406 115.8906,206.2656 C116.0313,206.4063 116.2656,206.5156 116.4844,206.5156 C116.75,206.5156 117.0156,206.375 117.1875,206.1563 C117.2969,206 117.3281,205.8125 117.3281,205.3906 L117.3281,203.9688 C117.3281,203.5313 117.3125,203.4063 117.2188,203.25 C117.0625,202.9844 116.7813,202.8438 116.4844,202.8438 C116.1875,202.8438 115.9844,202.9375 115.7656,203.25 L115.5938,203.1719 Z " fill="#000000"/><text fill="#000000" font-family="sans-serif" font-size="12" lengthAdjust="spacing" textLength="19" x="133.75" y="211.6543">Cat</text><line style="stroke:#A80036;stroke-width:1.5;" x1="8" x2="246" y1="223.5" y2="223.5"/><line style="stroke:#A80036;stroke-width:1.5;" x1="8" x2="246" y1="231.5" y2="231.5"/><ellipse cx="18" cy="242.5" fill="#84BE84" rx="3" ry="3" style="stroke:#038048;stroke-width:1.0;"/><text fill="#000000" font-family="sans-serif" font-size="11" lengthAdjust="spacing" textLength="214" x="27" y="245.7104">Cat(name:string, currentRoom:Rooms)</text><ellipse cx="18" cy="255.3047" fill="#84BE84" rx="3" ry="3" style="stroke:#038048;stroke-width:1.0;"/><text fill="#000000" font-family="sans-serif" font-size="11" lengthAdjust="spacing" textLength="190" x="27" y="258.5151">«override» TalkToOwner() : string</text><!--MD5=[9cfa872a99fa8e70a8c023fe905238fd]
class Pet--><rect codeLine="12" fill="#FEFECE" filter="url(#fxfvwm4046egj)" height="112.0234" id="Pet" style="stroke:#A80036;stroke-width:1.5;" width="239" x="387.5" y="7"/><ellipse cx="493.25" cy="23" fill="#A9DCDF" rx="11" ry="11" style="stroke:#A80036;stroke-width:1.0;"/><path d="M495.3281,24.8125 L495.7188,25.7969 L495.3281,25.7969 C494.875,25.7969 494.7656,25.8125 494.6094,25.9219 C494.3594,26.0781 494.2031,26.3594 494.2031,26.6563 C494.2031,26.9219 494.3438,27.1719 494.5625,27.3281 C494.7031,27.4531 494.9063,27.5 495.3281,27.5 L497.6875,27.5 C498.0469,27.5 498.2656,27.4688 498.4063,27.375 C498.6563,27.2344 498.8125,26.9375 498.8125,26.6563 C498.8125,26.375 498.6719,26.125 498.4531,25.9688 C498.2813,25.8281 498.125,25.7969 497.6563,25.7969 L494.2656,17.5938 L490.5938,17.5938 C490.1406,17.5938 490.0156,17.6094 489.8594,17.7031 C489.6094,17.875 489.4531,18.1563 489.4531,18.4375 C489.4531,18.7188 489.5938,18.9688 489.8125,19.1406 C489.9844,19.25 490.1563,19.2813 490.5938,19.2813 L491.6719,19.2813 L489.0313,25.7969 C488.6094,25.7969 488.4531,25.8125 488.2969,25.9219 C488.0469,26.0781 487.8906,26.3594 487.8906,26.6563 C487.8906,27.2188 488.2656,27.5 489.0156,27.5 L491.2813,27.5 C491.6406,27.5 491.8594,27.4688 491.9844,27.375 C492.25,27.2344 492.3906,26.9375 492.3906,26.6563 C492.3906,26.375 492.2656,26.125 492.0469,25.9531 C491.875,25.8281 491.7344,25.7969 491.2813,25.7969 L490.8906,25.7969 L491.2813,24.8125 L495.3281,24.8125 Z M494.625,23.1094 L491.9531,23.1094 L493.2969,19.8438 L494.625,23.1094 Z " fill="#000000"/><text fill="#000000" font-family="sans-serif" font-size="12" font-style="italic" lengthAdjust="spacing" textLength="19" x="513.75" y="27.1543">Pet</text><line style="stroke:#A80036;stroke-width:1.5;" x1="388.5" x2="625.5" y1="39" y2="39"/><text fill="#000000" font-family="sans-serif" font-size="11" lengthAdjust="spacing" textLength="95" x="407.5" y="53.2104">petName : string</text><ellipse cx="398.5" cy="62.8047" rx="3" ry="3" style="stroke:#038048;stroke-width:1.0;fill:none;"/><text fill="#000000" font-family="sans-serif" font-size="11" lengthAdjust="spacing" textLength="131" x="407.5" y="66.0151">PetName : string «get»</text><line style="stroke:#A80036;stroke-width:1.5;" x1="388.5" x2="625.5" y1="72.6094" y2="72.6094"/><ellipse cx="398.5" cy="83.6094" fill="#84BE84" rx="3" ry="3" style="stroke:#038048;stroke-width:1.0;"/><text fill="#000000" font-family="sans-serif" font-size="11" lengthAdjust="spacing" textLength="213" x="407.5" y="86.8198">Pet(name:string, currentRoom:Rooms)</text><ellipse cx="398.5" cy="96.4141" fill="#84BE84" rx="3" ry="3" style="stroke:#038048;stroke-width:1.0;"/><text fill="#000000" font-family="sans-serif" font-size="11" font-style="italic" lengthAdjust="spacing" textLength="126" x="407.5" y="99.6245">TalkToOwner() : string</text><text fill="#000000" font-family="sans-serif" font-size="11" lengthAdjust="spacing" textLength="143" x="407.5" y="112.4292">Sleeps(hours:byte) : void</text><!--MD5=[454ed48f055567edc734f170f61b4daf]
class Dog--><rect codeLine="6" fill="#FEFECE" filter="url(#fxfvwm4046egj)" height="86.4141" id="Dog" style="stroke:#A80036;stroke-width:1.5;" width="244" x="282" y="185.5"/><ellipse cx="387.25" cy="201.5" fill="#ADD1B2" rx="11" ry="11" style="stroke:#A80036;stroke-width:1.0;"/><path d="M389.5938,197.1719 C388.6563,196.7344 388.0625,196.5938 387.1875,196.5938 C384.5625,196.5938 382.5625,198.6719 382.5625,201.3906 L382.5625,202.5156 C382.5625,205.0938 384.6719,206.9844 387.5625,206.9844 C388.7813,206.9844 389.9375,206.6875 390.6875,206.1406 C391.2656,205.7344 391.5938,205.2813 391.5938,204.8906 C391.5938,204.4375 391.2031,204.0469 390.7344,204.0469 C390.5156,204.0469 390.3125,204.125 390.125,204.3125 C389.6719,204.7969 389.6719,204.7969 389.4844,204.8906 C389.0625,205.1563 388.375,205.2813 387.6094,205.2813 C385.5625,205.2813 384.2656,204.1875 384.2656,202.4844 L384.2656,201.3906 C384.2656,199.6094 385.5156,198.2969 387.25,198.2969 C387.8281,198.2969 388.4375,198.4531 388.9063,198.7031 C389.3906,198.9844 389.5625,199.2031 389.6563,199.6094 C389.7188,200.0156 389.75,200.1406 389.8906,200.2656 C390.0313,200.4063 390.2656,200.5156 390.4844,200.5156 C390.75,200.5156 391.0156,200.375 391.1875,200.1563 C391.2969,200 391.3281,199.8125 391.3281,199.3906 L391.3281,197.9688 C391.3281,197.5313 391.3125,197.4063 391.2188,197.25 C391.0625,196.9844 390.7813,196.8438 390.4844,196.8438 C390.1875,196.8438 389.9844,196.9375 389.7656,197.25 L389.5938,197.1719 Z " fill="#000000"/><text fill="#000000" font-family="sans-serif" font-size="12" lengthAdjust="spacing" textLength="25" x="407.75" y="205.6543">Dog</text><line style="stroke:#A80036;stroke-width:1.5;" x1="283" x2="525" y1="217.5" y2="217.5"/><line style="stroke:#A80036;stroke-width:1.5;" x1="283" x2="525" y1="225.5" y2="225.5"/><ellipse cx="293" cy="236.5" fill="#84BE84" rx="3" ry="3" style="stroke:#038048;stroke-width:1.0;"/><text fill="#000000" font-family="sans-serif" font-size="11" lengthAdjust="spacing" textLength="218" x="302" y="239.7104">Dog(name:string, currentRoom:Rooms)</text><ellipse cx="293" cy="249.3047" fill="#84BE84" rx="3" ry="3" style="stroke:#038048;stroke-width:1.0;"/><text fill="#000000" font-family="sans-serif" font-size="11" lengthAdjust="spacing" textLength="190" x="302" y="252.5151">«override» TalkToOwner() : string</text><ellipse cx="293" cy="262.1094" fill="#84BE84" rx="3" ry="3" style="stroke:#038048;stroke-width:1.0;"/><text fill="#000000" font-family="sans-serif" font-size="11" lengthAdjust="spacing" textLength="158" x="302" y="265.3198">SearchForCat(cat:Cat) : bool</text><!--MD5=[e5d97abc20c313af6041c631f757f25e]
class Rooms--><rect codeLine="21" fill="#FEFECE" filter="url(#fxfvwm4046egj)" height="99.2188" id="Rooms" style="stroke:#A80036;stroke-width:1.5;" width="98" x="561" y="179"/><ellipse cx="587.25" cy="195" fill="#EB937F" rx="11" ry="11" style="stroke:#A80036;stroke-width:1.0;"/><path d="M586.0469,195.875 L587.5,195.875 L587.5,195.9844 C587.5,196.3906 587.5313,196.5469 587.6094,196.7031 C587.7656,196.9531 588.0469,197.1094 588.3438,197.1094 C588.5938,197.1094 588.8594,196.9688 589.0156,196.75 C589.1406,196.5938 589.1719,196.4375 589.1719,195.9844 L589.1719,194.0625 C589.1719,193.9063 589.1719,193.8594 589.1563,193.7031 C589.0938,193.2344 588.7813,192.9219 588.3281,192.9219 C588.0781,192.9219 587.8125,193.0625 587.6406,193.2813 C587.5313,193.4531 587.5,193.6094 587.5,194.0625 L587.5,194.1875 L586.0469,194.1875 L586.0469,191.7813 L590.0313,191.7813 L590.0313,192.6406 C590.0313,193.0469 590.0625,193.2188 590.1406,193.375 C590.3125,193.625 590.5938,193.7813 590.875,193.7813 C591.1406,193.7813 591.4063,193.6406 591.5781,193.4219 C591.6875,193.25 591.7188,193.1094 591.7188,192.6406 L591.7188,190.0938 L584.0938,190.0938 C583.6563,190.0938 583.5313,190.1094 583.375,190.2031 C583.125,190.3594 582.9688,190.6563 582.9688,190.9375 C582.9688,191.2188 583.1094,191.4688 583.3281,191.6406 C583.4844,191.75 583.6719,191.7813 584.0938,191.7813 L584.3438,191.7813 L584.3438,198.2969 L584.0938,198.2969 C583.6875,198.2969 583.5313,198.3125 583.375,198.4219 C583.125,198.5938 582.9688,198.8594 582.9688,199.1563 C582.9688,199.4219 583.1094,199.6719 583.3281,199.8281 C583.4688,199.9531 583.7031,200 584.0938,200 L592.0938,200 L592.0938,197.4219 C592.0938,196.9844 592.0625,196.8438 591.9844,196.6875 C591.8125,196.4375 591.5313,196.2813 591.25,196.2813 C590.9844,196.2813 590.7188,196.3906 590.5469,196.6406 C590.4375,196.7969 590.4063,196.9375 590.4063,197.4219 L590.4063,198.2969 L586.0469,198.2969 L586.0469,195.875 Z " fill="#000000"/><text fill="#000000" font-family="sans-serif" font-size="12" lengthAdjust="spacing" textLength="41" x="603.75" y="199.1543">Rooms</text><line style="stroke:#A80036;stroke-width:1.5;" x1="562" x2="658" y1="211" y2="211"/><text fill="#000000" font-family="sans-serif" font-size="11" lengthAdjust="spacing" textLength="71" x="567" y="225.2104">DiningRoom,</text><text fill="#000000" font-family="sans-serif" font-size="11" lengthAdjust="spacing" textLength="86" x="567" y="238.0151">SleepingRoom,</text><text fill="#000000" font-family="sans-serif" font-size="11" lengthAdjust="spacing" textLength="45" x="567" y="250.8198">Kitchen,</text><text fill="#000000" font-family="sans-serif" font-size="11" lengthAdjust="spacing" textLength="24" x="567" y="263.6245">Hall,</text><line style="stroke:#A80036;stroke-width:1.5;" x1="562" x2="658" y1="270.2188" y2="270.2188"/><!--MD5=[b9ef9283188f36dea0e9121ce3de12b3]
class MyLittleZoo--><rect codeLine="27" fill="#FEFECE" filter="url(#fxfvwm4046egj)" height="60.8047" id="MyLittleZoo" style="stroke:#A80036;stroke-width:1.5;" width="161" x="661.5" y="32.5"/><ellipse cx="703.05" cy="48.5" fill="#ADD1B2" rx="11" ry="11" style="stroke:#A80036;stroke-width:1.0;"/><path d="M705.3938,44.1719 C704.4563,43.7344 703.8625,43.5938 702.9875,43.5938 C700.3625,43.5938 698.3625,45.6719 698.3625,48.3906 L698.3625,49.5156 C698.3625,52.0938 700.4719,53.9844 703.3625,53.9844 C704.5813,53.9844 705.7375,53.6875 706.4875,53.1406 C707.0656,52.7344 707.3938,52.2813 707.3938,51.8906 C707.3938,51.4375 707.0031,51.0469 706.5344,51.0469 C706.3156,51.0469 706.1125,51.125 705.925,51.3125 C705.4719,51.7969 705.4719,51.7969 705.2844,51.8906 C704.8625,52.1563 704.175,52.2813 703.4094,52.2813 C701.3625,52.2813 700.0656,51.1875 700.0656,49.4844 L700.0656,48.3906 C700.0656,46.6094 701.3156,45.2969 703.05,45.2969 C703.6281,45.2969 704.2375,45.4531 704.7063,45.7031 C705.1906,45.9844 705.3625,46.2031 705.4563,46.6094 C705.5188,47.0156 705.55,47.1406 705.6906,47.2656 C705.8313,47.4063 706.0656,47.5156 706.2844,47.5156 C706.55,47.5156 706.8156,47.375 706.9875,47.1563 C707.0969,47 707.1281,46.8125 707.1281,46.3906 L707.1281,44.9688 C707.1281,44.5313 707.1125,44.4063 707.0188,44.25 C706.8625,43.9844 706.5813,43.8438 706.2844,43.8438 C705.9875,43.8438 705.7844,43.9375 705.5656,44.25 L705.3938,44.1719 Z " fill="#000000"/><text fill="#000000" font-family="sans-serif" font-size="12" lengthAdjust="spacing" textLength="70" x="722.95" y="52.6543">MyLittleZoo</text><line style="stroke:#A80036;stroke-width:1.5;" x1="662.5" x2="821.5" y1="64.5" y2="64.5"/><line style="stroke:#A80036;stroke-width:1.5;" x1="662.5" x2="821.5" y1="72.5" y2="72.5"/><ellipse cx="672.5" cy="83.5" fill="#84BE84" rx="3" ry="3" style="stroke:#038048;stroke-width:1.0;"/><text fill="#000000" font-family="sans-serif" font-size="11" lengthAdjust="spacing" text-decoration="underline" textLength="135" x="681.5" y="86.7104">Main(args:string[]) : void</text><!--MD5=[be012ed37fddef7e7a0f00571bb17277]
reverse link Pet to Cat--><path codeLine="5" d="M368.848,123.442 C315.947,146.203 257.24,171.463 210.915,191.3945 " fill="none" id="Pet-backto-Cat" style="stroke:#A80036;stroke-width:1.0;"/><polygon fill="none" points="366.149,116.983,387.287,115.508,371.682,129.843,366.149,116.983" style="stroke:#A80036;stroke-width:1.0;"/><!--MD5=[d8c4024762fd7b08a07febe11311bafa]
reverse link Pet to Dog--><path codeLine="11" d="M461.341,136.478 C450.802,153.207 439.933,170.461 430.529,185.388 " fill="none" id="Pet-backto-Dog" style="stroke:#A80036;stroke-width:1.0;"/><polygon fill="none" points="455.546,132.545,472.129,119.354,467.391,140.007,455.546,132.545" style="stroke:#A80036;stroke-width:1.0;"/><!--MD5=[ed6818d6c842a95a51e1b44597f971f6]
link Pet to Rooms--><path codeLine="19" d="M529.731,119.354 C540.073,137.118 552.474,156.745 564.486,174.347 " fill="none" id="Pet-to-Rooms" style="stroke:#A80036;stroke-width:1.0;"/><polygon fill="#A80036" points="567.53,178.7767,565.7291,169.0939,564.6981,174.656,559.136,173.625,567.53,178.7767" style="stroke:#A80036;stroke-width:1.0;"/><text fill="#000000" font-family="sans-serif" font-size="13" lengthAdjust="spacing" textLength="104" x="456.0972" y="168.0889">localizedInRoom</text><!--MD5=[ed6818d6c842a95a51e1b44597f971f6]
link Pet to Rooms--><path codeLine="20" d="M554.725,119.354 C566.815,137.118 579.14,156.745 589.253,174.347 " fill="none" id="Pet-to-Rooms-1" style="stroke:#A80036;stroke-width:1.0;"/><polygon fill="#A80036" points="591.775,178.7767,590.798,168.9764,589.3011,174.4316,583.8459,172.9347,591.775,178.7767" style="stroke:#A80036;stroke-width:1.0;"/><text fill="#000000" font-family="sans-serif" font-size="13" lengthAdjust="spacing" textLength="108" x="596.8059" y="167.7909">LocalizedInRoom</text><!--MD5=[5222f52461c3b82bc4e4708d624c36ae]
@startuml
class Cat {
    + Cat(name:string, currentRoom:Rooms)
    + <<override>> TalkToOwner() : string
}
Pet <|- - Cat
class Dog {
    + Dog(name:string, currentRoom:Rooms)
    + <<override>> TalkToOwner() : string
    + SearchForCat(cat:Cat) : bool
}
Pet <|- - Dog
abstract class Pet {
    + Pet(name:string, currentRoom:Rooms)
    petName : string
    + PetName : string <<get>>
    + {abstract} TalkToOwner() : string
    Sleeps(hours:byte) : void
}
Pet - -> "localizedInRoom" Rooms
Pet - -> "LocalizedInRoom" Rooms
enum Rooms {
    DiningRoom,
    SleepingRoom,
    Kitchen,
    Hall,
}
class MyLittleZoo {
    + {static} Main(args:string[]) : void
}
@enduml

PlantUML version 1.2021.7(Sun May 23 12:40:07 UTC 2021)
(GPL source distribution)
Java Runtime: Java(TM) SE Runtime Environment
JVM: Java HotSpot(TM) 64-Bit Server VM
Default Encoding: UTF-8
Language: en
Country: US
--></g></svg>