<?xml version="1.0" encoding="UTF-8" standalone="no"?><svg xmlns="http://www.w3.org/2000/svg" xmlns:xlink="http://www.w3.org/1999/xlink" contentScriptType="application/ecmascript" contentStyleType="text/css" height="202px" preserveAspectRatio="none" style="width:261px;height:202px;background:#FFFFFF;" version="1.1" viewBox="0 0 261 202" width="261px" zoomAndPan="magnify"><defs><filter height="300%" id="fppk9qhg0r2g9" width="300%" x="-1" y="-1"><feGaussianBlur result="blurOut" stdDeviation="2.0"/><feColorMatrix in="blurOut" result="blurOut2" type="matrix" values="0 0 0 0 0 0 0 0 0 0 0 0 0 0 0 0 0 0 .4 0"/><feOffset dx="4.0" dy="4.0" in="blurOut2" result="blurOut3"/><feBlend in="SourceGraphic" in2="blurOut3" mode="normal"/></filter></defs><g><!--MD5=[8d10b9619f233caeee54837354dd5717]
class Cat--><rect codeLine="1" fill="#FEFECE" filter="url(#fppk9qhg0r2g9)" height="73.6094" id="Cat" style="stroke:#A80036;stroke-width:1.5;" width="240" x="7" y="115"/><ellipse cx="113.25" cy="131" fill="#ADD1B2" rx="11" ry="11" style="stroke:#A80036;stroke-width:1.0;"/><path d="M115.5938,126.6719 C114.6563,126.2344 114.0625,126.0938 113.1875,126.0938 C110.5625,126.0938 108.5625,128.1719 108.5625,130.8906 L108.5625,132.0156 C108.5625,134.5938 110.6719,136.4844 113.5625,136.4844 C114.7813,136.4844 115.9375,136.1875 116.6875,135.6406 C117.2656,135.2344 117.5938,134.7813 117.5938,134.3906 C117.5938,133.9375 117.2031,133.5469 116.7344,133.5469 C116.5156,133.5469 116.3125,133.625 116.125,133.8125 C115.6719,134.2969 115.6719,134.2969 115.4844,134.3906 C115.0625,134.6563 114.375,134.7813 113.6094,134.7813 C111.5625,134.7813 110.2656,133.6875 110.2656,131.9844 L110.2656,130.8906 C110.2656,129.1094 111.5156,127.7969 113.25,127.7969 C113.8281,127.7969 114.4375,127.9531 114.9063,128.2031 C115.3906,128.4844 115.5625,128.7031 115.6563,129.1094 C115.7188,129.5156 115.75,129.6406 115.8906,129.7656 C116.0313,129.9063 116.2656,130.0156 116.4844,130.0156 C116.75,130.0156 117.0156,129.875 117.1875,129.6563 C117.2969,129.5 117.3281,129.3125 117.3281,128.8906 L117.3281,127.4688 C117.3281,127.0313 117.3125,126.9063 117.2188,126.75 C117.0625,126.4844 116.7813,126.3438 116.4844,126.3438 C116.1875,126.3438 115.9844,126.4375 115.7656,126.75 L115.5938,126.6719 Z " fill="#000000"/><text fill="#000000" font-family="sans-serif" font-size="12" lengthAdjust="spacing" textLength="19" x="133.75" y="135.1543">Cat</text><line style="stroke:#A80036;stroke-width:1.5;" x1="8" x2="246" y1="147" y2="147"/><line style="stroke:#A80036;stroke-width:1.5;" x1="8" x2="246" y1="155" y2="155"/><ellipse cx="18" cy="166" fill="#84BE84" rx="3" ry="3" style="stroke:#038048;stroke-width:1.0;"/><text fill="#000000" font-family="sans-serif" font-size="11" lengthAdjust="spacing" textLength="214" x="27" y="169.2104">Cat(name:string, currentRoom:Rooms)</text><ellipse cx="18" cy="178.8047" fill="#84BE84" rx="3" ry="3" style="stroke:#038048;stroke-width:1.0;"/><text fill="#000000" font-family="sans-serif" font-size="11" lengthAdjust="spacing" textLength="190" x="27" y="182.0151">«override» TalkToOwner() : string</text><!--MD5=[9cfa872a99fa8e70a8c023fe905238fd]
class Pet--><rect fill="#FEFECE" filter="url(#fppk9qhg0r2g9)" height="48" id="Pet" style="stroke:#A80036;stroke-width:1.5;" width="50" x="102" y="7"/><ellipse cx="117" cy="23" fill="#ADD1B2" rx="11" ry="11" style="stroke:#A80036;stroke-width:1.0;"/><path d="M119.3438,18.6719 C118.4063,18.2344 117.8125,18.0938 116.9375,18.0938 C114.3125,18.0938 112.3125,20.1719 112.3125,22.8906 L112.3125,24.0156 C112.3125,26.5938 114.4219,28.4844 117.3125,28.4844 C118.5313,28.4844 119.6875,28.1875 120.4375,27.6406 C121.0156,27.2344 121.3438,26.7813 121.3438,26.3906 C121.3438,25.9375 120.9531,25.5469 120.4844,25.5469 C120.2656,25.5469 120.0625,25.625 119.875,25.8125 C119.4219,26.2969 119.4219,26.2969 119.2344,26.3906 C118.8125,26.6563 118.125,26.7813 117.3594,26.7813 C115.3125,26.7813 114.0156,25.6875 114.0156,23.9844 L114.0156,22.8906 C114.0156,21.1094 115.2656,19.7969 117,19.7969 C117.5781,19.7969 118.1875,19.9531 118.6563,20.2031 C119.1406,20.4844 119.3125,20.7031 119.4063,21.1094 C119.4688,21.5156 119.5,21.6406 119.6406,21.7656 C119.7813,21.9063 120.0156,22.0156 120.2344,22.0156 C120.5,22.0156 120.7656,21.875 120.9375,21.6563 C121.0469,21.5 121.0781,21.3125 121.0781,20.8906 L121.0781,19.4688 C121.0781,19.0313 121.0625,18.9063 120.9688,18.75 C120.8125,18.4844 120.5313,18.3438 120.2344,18.3438 C119.9375,18.3438 119.7344,18.4375 119.5156,18.75 L119.3438,18.6719 Z " fill="#000000"/><text fill="#000000" font-family="sans-serif" font-size="12" lengthAdjust="spacing" textLength="18" x="131" y="27.1543">Pet</text><line style="stroke:#A80036;stroke-width:1.5;" x1="103" x2="151" y1="39" y2="39"/><line style="stroke:#A80036;stroke-width:1.5;" x1="103" x2="151" y1="47" y2="47"/><!--MD5=[be012ed37fddef7e7a0f00571bb17277]
reverse link Pet to Cat--><path codeLine="5" d="M127,75.433 C127,88.332 127,102.3199 127,114.714 " fill="none" id="Pet-backto-Cat" style="stroke:#A80036;stroke-width:1.0;"/><polygon fill="none" points="120,75.227,127,55.227,134,75.227,120,75.227" style="stroke:#A80036;stroke-width:1.0;"/><!--MD5=[f20cf52cbb00859ffbee5483ec91981d]
@startuml
class Cat {
    + Cat(name:string, currentRoom:Rooms)
    + <<override>> TalkToOwner() : string
}
Pet <|- - Cat
@enduml

PlantUML version 1.2021.7(Sun May 23 12:40:07 UTC 2021)
(GPL source distribution)
Java Runtime: Java(TM) SE Runtime Environment
JVM: Java HotSpot(TM) 64-Bit Server VM
Default Encoding: UTF-8
Language: en
Country: US
--></g></svg>