<?xml version="1.0" encoding="UTF-8" standalone="no"?><svg xmlns="http://www.w3.org/2000/svg" xmlns:xlink="http://www.w3.org/1999/xlink" contentScriptType="application/ecmascript" contentStyleType="text/css" height="241px" preserveAspectRatio="none" style="width:276px;height:241px;background:#FFFFFF;" version="1.1" viewBox="0 0 276 241" width="276px" zoomAndPan="magnify"><defs><filter height="300%" id="f24ahf9khotd1" width="300%" x="-1" y="-1"><feGaussianBlur result="blurOut" stdDeviation="2.0"/><feColorMatrix in="blurOut" result="blurOut2" type="matrix" values="0 0 0 0 0 0 0 0 0 0 0 0 0 0 0 0 0 0 .4 0"/><feOffset dx="4.0" dy="4.0" in="blurOut2" result="blurOut3"/><feBlend in="SourceGraphic" in2="blurOut3" mode="normal"/></filter></defs><g><!--MD5=[9cfa872a99fa8e70a8c023fe905238fd]
class Pet--><rect codeLine="1" fill="#FEFECE" filter="url(#f24ahf9khotd1)" height="112.0234" id="Pet" style="stroke:#A80036;stroke-width:1.5;" width="239" x="15.4119" y="7"/><ellipse cx="121.1619" cy="23" fill="#A9DCDF" rx="11" ry="11" style="stroke:#A80036;stroke-width:1.0;"/><path d="M123.24,24.8125 L123.6307,25.7969 L123.24,25.7969 C122.7869,25.7969 122.6775,25.8125 122.5213,25.9219 C122.2713,26.0781 122.115,26.3594 122.115,26.6563 C122.115,26.9219 122.2557,27.1719 122.4744,27.3281 C122.615,27.4531 122.8182,27.5 123.24,27.5 L125.5994,27.5 C125.9588,27.5 126.1775,27.4688 126.3182,27.375 C126.5682,27.2344 126.7244,26.9375 126.7244,26.6563 C126.7244,26.375 126.5838,26.125 126.365,25.9688 C126.1932,25.8281 126.0369,25.7969 125.5682,25.7969 L122.1775,17.5938 L118.5057,17.5938 C118.0525,17.5938 117.9275,17.6094 117.7713,17.7031 C117.5213,17.875 117.365,18.1563 117.365,18.4375 C117.365,18.7188 117.5057,18.9688 117.7244,19.1406 C117.8963,19.25 118.0682,19.2813 118.5057,19.2813 L119.5838,19.2813 L116.9432,25.7969 C116.5213,25.7969 116.365,25.8125 116.2088,25.9219 C115.9588,26.0781 115.8025,26.3594 115.8025,26.6563 C115.8025,27.2188 116.1775,27.5 116.9275,27.5 L119.1932,27.5 C119.5525,27.5 119.7713,27.4688 119.8963,27.375 C120.1619,27.2344 120.3025,26.9375 120.3025,26.6563 C120.3025,26.375 120.1775,26.125 119.9588,25.9531 C119.7869,25.8281 119.6463,25.7969 119.1932,25.7969 L118.8025,25.7969 L119.1932,24.8125 L123.24,24.8125 Z M122.5369,23.1094 L119.865,23.1094 L121.2088,19.8438 L122.5369,23.1094 Z " fill="#000000"/><text fill="#000000" font-family="sans-serif" font-size="12" font-style="italic" lengthAdjust="spacing" textLength="19" x="141.6619" y="27.1543">Pet</text><line style="stroke:#A80036;stroke-width:1.5;" x1="16.4119" x2="253.4119" y1="39" y2="39"/><text fill="#000000" font-family="sans-serif" font-size="11" lengthAdjust="spacing" textLength="95" x="35.4119" y="53.2104">petName : string</text><ellipse cx="26.4119" cy="62.8047" rx="3" ry="3" style="stroke:#038048;stroke-width:1.0;fill:none;"/><text fill="#000000" font-family="sans-serif" font-size="11" lengthAdjust="spacing" textLength="131" x="35.4119" y="66.0151">PetName : string «get»</text><line style="stroke:#A80036;stroke-width:1.5;" x1="16.4119" x2="253.4119" y1="72.6094" y2="72.6094"/><ellipse cx="26.4119" cy="83.6094" fill="#84BE84" rx="3" ry="3" style="stroke:#038048;stroke-width:1.0;"/><text fill="#000000" font-family="sans-serif" font-size="11" lengthAdjust="spacing" textLength="213" x="35.4119" y="86.8198">Pet(name:string, currentRoom:Rooms)</text><ellipse cx="26.4119" cy="96.4141" fill="#84BE84" rx="3" ry="3" style="stroke:#038048;stroke-width:1.0;"/><text fill="#000000" font-family="sans-serif" font-size="11" font-style="italic" lengthAdjust="spacing" textLength="126" x="35.4119" y="99.6245">TalkToOwner() : string</text><text fill="#000000" font-family="sans-serif" font-size="11" lengthAdjust="spacing" textLength="143" x="35.4119" y="112.4292">Sleeps(hours:byte) : void</text><!--MD5=[e5d97abc20c313af6041c631f757f25e]
class Rooms--><rect fill="#FEFECE" filter="url(#f24ahf9khotd1)" height="48" id="Rooms" style="stroke:#A80036;stroke-width:1.5;" width="73" x="98.4119" y="179"/><ellipse cx="113.4119" cy="195" fill="#ADD1B2" rx="11" ry="11" style="stroke:#A80036;stroke-width:1.0;"/><path d="M115.7557,190.6719 C114.8182,190.2344 114.2244,190.0938 113.3494,190.0938 C110.7244,190.0938 108.7244,192.1719 108.7244,194.8906 L108.7244,196.0156 C108.7244,198.5938 110.8338,200.4844 113.7244,200.4844 C114.9432,200.4844 116.0994,200.1875 116.8494,199.6406 C117.4275,199.2344 117.7557,198.7813 117.7557,198.3906 C117.7557,197.9375 117.365,197.5469 116.8963,197.5469 C116.6775,197.5469 116.4744,197.625 116.2869,197.8125 C115.8338,198.2969 115.8338,198.2969 115.6463,198.3906 C115.2244,198.6563 114.5369,198.7813 113.7713,198.7813 C111.7244,198.7813 110.4275,197.6875 110.4275,195.9844 L110.4275,194.8906 C110.4275,193.1094 111.6775,191.7969 113.4119,191.7969 C113.99,191.7969 114.5994,191.9531 115.0682,192.2031 C115.5525,192.4844 115.7244,192.7031 115.8182,193.1094 C115.8807,193.5156 115.9119,193.6406 116.0525,193.7656 C116.1932,193.9063 116.4275,194.0156 116.6463,194.0156 C116.9119,194.0156 117.1775,193.875 117.3494,193.6563 C117.4588,193.5 117.49,193.3125 117.49,192.8906 L117.49,191.4688 C117.49,191.0313 117.4744,190.9063 117.3807,190.75 C117.2244,190.4844 116.9432,190.3438 116.6463,190.3438 C116.3494,190.3438 116.1463,190.4375 115.9275,190.75 L115.7557,190.6719 Z " fill="#000000"/><text fill="#000000" font-family="sans-serif" font-size="12" lengthAdjust="spacing" textLength="41" x="127.4119" y="199.1543">Rooms</text><line style="stroke:#A80036;stroke-width:1.5;" x1="99.4119" x2="170.4119" y1="211" y2="211"/><line style="stroke:#A80036;stroke-width:1.5;" x1="99.4119" x2="170.4119" y1="219" y2="219"/><!--MD5=[ed6818d6c842a95a51e1b44597f971f6]
link Pet to Rooms--><path codeLine="8" d="M122.3869,119.335 C121.7679,137.9288 122.4269,157.9021 124.3669,173.5573 " fill="none" id="Pet-to-Rooms" style="stroke:#A80036;stroke-width:1.0;"/><polygon fill="#A80036" points="125.0729,178.6926,127.8084,169.2312,124.3911,173.7393,119.8831,170.3221,125.0729,178.6926" style="stroke:#A80036;stroke-width:1.0;"/><text fill="#000000" font-family="sans-serif" font-size="13" lengthAdjust="spacing" textLength="104" x="6" y="168.0226">localizedInRoom</text><!--MD5=[ed6818d6c842a95a51e1b44597f971f6]
link Pet to Rooms--><path codeLine="9" d="M148.1739,119.335 C148.8299,137.9288 148.1309,157.9021 146.0779,173.5573 " fill="none" id="Pet-to-Rooms-1" style="stroke:#A80036;stroke-width:1.0;"/><polygon fill="#A80036" points="145.3289,178.6926,150.5851,170.3636,146.05,173.7449,142.6687,169.2098,145.3289,178.6926" style="stroke:#A80036;stroke-width:1.0;"/><text fill="#000000" font-family="sans-serif" font-size="13" lengthAdjust="spacing" textLength="108" x="161.0306" y="168.0226">LocalizedInRoom</text><!--MD5=[7b1ac49153c98a7e51ec296f9e62b0d6]
@startuml
abstract class Pet {
    + Pet(name:string, currentRoom:Rooms)
    petName : string
    + PetName : string <<get>>
    + {abstract} TalkToOwner() : string
    Sleeps(hours:byte) : void
}
Pet - -> "localizedInRoom" Rooms
Pet - -> "LocalizedInRoom" Rooms
@enduml

PlantUML version 1.2021.7(Sun May 23 12:40:07 UTC 2021)
(GPL source distribution)
Java Runtime: Java(TM) SE Runtime Environment
JVM: Java HotSpot(TM) 64-Bit Server VM
Default Encoding: UTF-8
Language: en
Country: US
--></g></svg>