<?xml version="1.0" encoding="UTF-8" standalone="no"?><svg xmlns="http://www.w3.org/2000/svg" xmlns:xlink="http://www.w3.org/1999/xlink" contentScriptType="application/ecmascript" contentStyleType="text/css" height="215px" preserveAspectRatio="none" style="width:265px;height:215px;background:#FFFFFF;" version="1.1" viewBox="0 0 265 215" width="265px" zoomAndPan="magnify"><defs><filter height="300%" id="f1o2tcvchv3ptn" width="300%" x="-1" y="-1"><feGaussianBlur result="blurOut" stdDeviation="2.0"/><feColorMatrix in="blurOut" result="blurOut2" type="matrix" values="0 0 0 0 0 0 0 0 0 0 0 0 0 0 0 0 0 0 .4 0"/><feOffset dx="4.0" dy="4.0" in="blurOut2" result="blurOut3"/><feBlend in="SourceGraphic" in2="blurOut3" mode="normal"/></filter></defs><g><!--MD5=[454ed48f055567edc734f170f61b4daf]
class Dog--><rect codeLine="1" fill="#FEFECE" filter="url(#f1o2tcvchv3ptn)" height="86.4141" id="Dog" style="stroke:#A80036;stroke-width:1.5;" width="244" x="7" y="115"/><ellipse cx="112.25" cy="131" fill="#ADD1B2" rx="11" ry="11" style="stroke:#A80036;stroke-width:1.0;"/><path d="M114.5938,126.6719 C113.6563,126.2344 113.0625,126.0938 112.1875,126.0938 C109.5625,126.0938 107.5625,128.1719 107.5625,130.8906 L107.5625,132.0156 C107.5625,134.5938 109.6719,136.4844 112.5625,136.4844 C113.7813,136.4844 114.9375,136.1875 115.6875,135.6406 C116.2656,135.2344 116.5938,134.7813 116.5938,134.3906 C116.5938,133.9375 116.2031,133.5469 115.7344,133.5469 C115.5156,133.5469 115.3125,133.625 115.125,133.8125 C114.6719,134.2969 114.6719,134.2969 114.4844,134.3906 C114.0625,134.6563 113.375,134.7813 112.6094,134.7813 C110.5625,134.7813 109.2656,133.6875 109.2656,131.9844 L109.2656,130.8906 C109.2656,129.1094 110.5156,127.7969 112.25,127.7969 C112.8281,127.7969 113.4375,127.9531 113.9063,128.2031 C114.3906,128.4844 114.5625,128.7031 114.6563,129.1094 C114.7188,129.5156 114.75,129.6406 114.8906,129.7656 C115.0313,129.9063 115.2656,130.0156 115.4844,130.0156 C115.75,130.0156 116.0156,129.875 116.1875,129.6563 C116.2969,129.5 116.3281,129.3125 116.3281,128.8906 L116.3281,127.4688 C116.3281,127.0313 116.3125,126.9063 116.2188,126.75 C116.0625,126.4844 115.7813,126.3438 115.4844,126.3438 C115.1875,126.3438 114.9844,126.4375 114.7656,126.75 L114.5938,126.6719 Z " fill="#000000"/><text fill="#000000" font-family="sans-serif" font-size="12" lengthAdjust="spacing" textLength="25" x="132.75" y="135.1543">Dog</text><line style="stroke:#A80036;stroke-width:1.5;" x1="8" x2="250" y1="147" y2="147"/><line style="stroke:#A80036;stroke-width:1.5;" x1="8" x2="250" y1="155" y2="155"/><ellipse cx="18" cy="166" fill="#84BE84" rx="3" ry="3" style="stroke:#038048;stroke-width:1.0;"/><text fill="#000000" font-family="sans-serif" font-size="11" lengthAdjust="spacing" textLength="218" x="27" y="169.2104">Dog(name:string, currentRoom:Rooms)</text><ellipse cx="18" cy="178.8047" fill="#84BE84" rx="3" ry="3" style="stroke:#038048;stroke-width:1.0;"/><text fill="#000000" font-family="sans-serif" font-size="11" lengthAdjust="spacing" textLength="190" x="27" y="182.0151">«override» TalkToOwner() : string</text><ellipse cx="18" cy="191.6094" fill="#84BE84" rx="3" ry="3" style="stroke:#038048;stroke-width:1.0;"/><text fill="#000000" font-family="sans-serif" font-size="11" lengthAdjust="spacing" textLength="158" x="27" y="194.8198">SearchForCat(cat:Cat) : bool</text><!--MD5=[9cfa872a99fa8e70a8c023fe905238fd]
class Pet--><rect fill="#FEFECE" filter="url(#f1o2tcvchv3ptn)" height="48" id="Pet" style="stroke:#A80036;stroke-width:1.5;" width="50" x="104" y="7"/><ellipse cx="119" cy="23" fill="#ADD1B2" rx="11" ry="11" style="stroke:#A80036;stroke-width:1.0;"/><path d="M121.3438,18.6719 C120.4063,18.2344 119.8125,18.0938 118.9375,18.0938 C116.3125,18.0938 114.3125,20.1719 114.3125,22.8906 L114.3125,24.0156 C114.3125,26.5938 116.4219,28.4844 119.3125,28.4844 C120.5313,28.4844 121.6875,28.1875 122.4375,27.6406 C123.0156,27.2344 123.3438,26.7813 123.3438,26.3906 C123.3438,25.9375 122.9531,25.5469 122.4844,25.5469 C122.2656,25.5469 122.0625,25.625 121.875,25.8125 C121.4219,26.2969 121.4219,26.2969 121.2344,26.3906 C120.8125,26.6563 120.125,26.7813 119.3594,26.7813 C117.3125,26.7813 116.0156,25.6875 116.0156,23.9844 L116.0156,22.8906 C116.0156,21.1094 117.2656,19.7969 119,19.7969 C119.5781,19.7969 120.1875,19.9531 120.6563,20.2031 C121.1406,20.4844 121.3125,20.7031 121.4063,21.1094 C121.4688,21.5156 121.5,21.6406 121.6406,21.7656 C121.7813,21.9063 122.0156,22.0156 122.2344,22.0156 C122.5,22.0156 122.7656,21.875 122.9375,21.6563 C123.0469,21.5 123.0781,21.3125 123.0781,20.8906 L123.0781,19.4688 C123.0781,19.0313 123.0625,18.9063 122.9688,18.75 C122.8125,18.4844 122.5313,18.3438 122.2344,18.3438 C121.9375,18.3438 121.7344,18.4375 121.5156,18.75 L121.3438,18.6719 Z " fill="#000000"/><text fill="#000000" font-family="sans-serif" font-size="12" lengthAdjust="spacing" textLength="18" x="133" y="27.1543">Pet</text><line style="stroke:#A80036;stroke-width:1.5;" x1="105" x2="153" y1="39" y2="39"/><line style="stroke:#A80036;stroke-width:1.5;" x1="105" x2="153" y1="47" y2="47"/><!--MD5=[d8c4024762fd7b08a07febe11311bafa]
reverse link Pet to Dog--><path codeLine="6" d="M129,75.269 C129,88.117 129,102.1658 129,114.9359 " fill="none" id="Pet-backto-Dog" style="stroke:#A80036;stroke-width:1.0;"/><polygon fill="none" points="122,75.219,129,55.219,136,75.219,122,75.219" style="stroke:#A80036;stroke-width:1.0;"/><!--MD5=[2e07df04d960737b3d8e2d14788dcc95]
@startuml
class Dog {
    + Dog(name:string, currentRoom:Rooms)
    + <<override>> TalkToOwner() : string
    + SearchForCat(cat:Cat) : bool
}
Pet <|- - Dog
@enduml

PlantUML version 1.2021.7(Sun May 23 12:40:07 UTC 2021)
(GPL source distribution)
Java Runtime: Java(TM) SE Runtime Environment
JVM: Java HotSpot(TM) 64-Bit Server VM
Default Encoding: UTF-8
Language: en
Country: US
--></g></svg>