<?xml version="1.0" encoding="UTF-8" standalone="no"?><svg xmlns="http://www.w3.org/2000/svg" xmlns:xlink="http://www.w3.org/1999/xlink" contentScriptType="application/ecmascript" contentStyleType="text/css" height="120px" preserveAspectRatio="none" style="width:119px;height:120px;background:#FFFFFF;" version="1.1" viewBox="0 0 119 120" width="119px" zoomAndPan="magnify"><defs><filter height="300%" id="fwwae04hg9xz2" width="300%" x="-1" y="-1"><feGaussianBlur result="blurOut" stdDeviation="2.0"/><feColorMatrix in="blurOut" result="blurOut2" type="matrix" values="0 0 0 0 0 0 0 0 0 0 0 0 0 0 0 0 0 0 .4 0"/><feOffset dx="4.0" dy="4.0" in="blurOut2" result="blurOut3"/><feBlend in="SourceGraphic" in2="blurOut3" mode="normal"/></filter></defs><g><!--MD5=[e5d97abc20c313af6041c631f757f25e]
class Rooms--><rect codeLine="1" fill="#FEFECE" filter="url(#fwwae04hg9xz2)" height="99.2188" id="Rooms" style="stroke:#A80036;stroke-width:1.5;" width="98" x="7" y="7"/><ellipse cx="33.25" cy="23" fill="#EB937F" rx="11" ry="11" style="stroke:#A80036;stroke-width:1.0;"/><path d="M32.0469,23.875 L33.5,23.875 L33.5,23.9844 C33.5,24.3906 33.5313,24.5469 33.6094,24.7031 C33.7656,24.9531 34.0469,25.1094 34.3438,25.1094 C34.5938,25.1094 34.8594,24.9688 35.0156,24.75 C35.1406,24.5938 35.1719,24.4375 35.1719,23.9844 L35.1719,22.0625 C35.1719,21.9063 35.1719,21.8594 35.1563,21.7031 C35.0938,21.2344 34.7813,20.9219 34.3281,20.9219 C34.0781,20.9219 33.8125,21.0625 33.6406,21.2813 C33.5313,21.4531 33.5,21.6094 33.5,22.0625 L33.5,22.1875 L32.0469,22.1875 L32.0469,19.7813 L36.0313,19.7813 L36.0313,20.6406 C36.0313,21.0469 36.0625,21.2188 36.1406,21.375 C36.3125,21.625 36.5938,21.7813 36.875,21.7813 C37.1406,21.7813 37.4063,21.6406 37.5781,21.4219 C37.6875,21.25 37.7188,21.1094 37.7188,20.6406 L37.7188,18.0938 L30.0938,18.0938 C29.6563,18.0938 29.5313,18.1094 29.375,18.2031 C29.125,18.3594 28.9688,18.6563 28.9688,18.9375 C28.9688,19.2188 29.1094,19.4688 29.3281,19.6406 C29.4844,19.75 29.6719,19.7813 30.0938,19.7813 L30.3438,19.7813 L30.3438,26.2969 L30.0938,26.2969 C29.6875,26.2969 29.5313,26.3125 29.375,26.4219 C29.125,26.5938 28.9688,26.8594 28.9688,27.1563 C28.9688,27.4219 29.1094,27.6719 29.3281,27.8281 C29.4688,27.9531 29.7031,28 30.0938,28 L38.0938,28 L38.0938,25.4219 C38.0938,24.9844 38.0625,24.8438 37.9844,24.6875 C37.8125,24.4375 37.5313,24.2813 37.25,24.2813 C36.9844,24.2813 36.7188,24.3906 36.5469,24.6406 C36.4375,24.7969 36.4063,24.9375 36.4063,25.4219 L36.4063,26.2969 L32.0469,26.2969 L32.0469,23.875 Z " fill="#000000"/><text fill="#000000" font-family="sans-serif" font-size="12" lengthAdjust="spacing" textLength="41" x="49.75" y="27.1543">Rooms</text><line style="stroke:#A80036;stroke-width:1.5;" x1="8" x2="104" y1="39" y2="39"/><text fill="#000000" font-family="sans-serif" font-size="11" lengthAdjust="spacing" textLength="71" x="13" y="53.2104">DiningRoom,</text><text fill="#000000" font-family="sans-serif" font-size="11" lengthAdjust="spacing" textLength="86" x="13" y="66.0151">SleepingRoom,</text><text fill="#000000" font-family="sans-serif" font-size="11" lengthAdjust="spacing" textLength="45" x="13" y="78.8198">Kitchen,</text><text fill="#000000" font-family="sans-serif" font-size="11" lengthAdjust="spacing" textLength="24" x="13" y="91.6245">Hall,</text><line style="stroke:#A80036;stroke-width:1.5;" x1="8" x2="104" y1="98.2188" y2="98.2188"/><!--MD5=[f1f789fa862ad94482d7f3aaa0c144a7]
@startuml
enum Rooms {
    DiningRoom,
    SleepingRoom,
    Kitchen,
    Hall,
}
@enduml

PlantUML version 1.2021.7(Sun May 23 12:40:07 UTC 2021)
(GPL source distribution)
Java Runtime: Java(TM) SE Runtime Environment
JVM: Java HotSpot(TM) 64-Bit Server VM
Default Encoding: UTF-8
Language: en
Country: US
--></g></svg>