<?xml version="1.0" encoding="UTF-8" standalone="no"?><svg xmlns="http://www.w3.org/2000/svg" xmlns:xlink="http://www.w3.org/1999/xlink" contentScriptType="application/ecmascript" contentStyleType="text/css" height="81px" preserveAspectRatio="none" style="width:182px;height:81px;background:#FFFFFF;" version="1.1" viewBox="0 0 182 81" width="182px" zoomAndPan="magnify"><defs><filter height="300%" id="f1l1bzhe65dq6c" width="300%" x="-1" y="-1"><feGaussianBlur result="blurOut" stdDeviation="2.0"/><feColorMatrix in="blurOut" result="blurOut2" type="matrix" values="0 0 0 0 0 0 0 0 0 0 0 0 0 0 0 0 0 0 .4 0"/><feOffset dx="4.0" dy="4.0" in="blurOut2" result="blurOut3"/><feBlend in="SourceGraphic" in2="blurOut3" mode="normal"/></filter></defs><g><!--MD5=[b9ef9283188f36dea0e9121ce3de12b3]
class MyLittleZoo--><rect codeLine="1" fill="#FEFECE" filter="url(#f1l1bzhe65dq6c)" height="60.8047" id="MyLittleZoo" style="stroke:#A80036;stroke-width:1.5;" width="161" x="7" y="7"/><ellipse cx="48.55" cy="23" fill="#ADD1B2" rx="11" ry="11" style="stroke:#A80036;stroke-width:1.0;"/><path d="M50.8938,18.6719 C49.9563,18.2344 49.3625,18.0938 48.4875,18.0938 C45.8625,18.0938 43.8625,20.1719 43.8625,22.8906 L43.8625,24.0156 C43.8625,26.5938 45.9719,28.4844 48.8625,28.4844 C50.0813,28.4844 51.2375,28.1875 51.9875,27.6406 C52.5656,27.2344 52.8938,26.7813 52.8938,26.3906 C52.8938,25.9375 52.5031,25.5469 52.0344,25.5469 C51.8156,25.5469 51.6125,25.625 51.425,25.8125 C50.9719,26.2969 50.9719,26.2969 50.7844,26.3906 C50.3625,26.6563 49.675,26.7813 48.9094,26.7813 C46.8625,26.7813 45.5656,25.6875 45.5656,23.9844 L45.5656,22.8906 C45.5656,21.1094 46.8156,19.7969 48.55,19.7969 C49.1281,19.7969 49.7375,19.9531 50.2063,20.2031 C50.6906,20.4844 50.8625,20.7031 50.9563,21.1094 C51.0188,21.5156 51.05,21.6406 51.1906,21.7656 C51.3313,21.9063 51.5656,22.0156 51.7844,22.0156 C52.05,22.0156 52.3156,21.875 52.4875,21.6563 C52.5969,21.5 52.6281,21.3125 52.6281,20.8906 L52.6281,19.4688 C52.6281,19.0313 52.6125,18.9063 52.5188,18.75 C52.3625,18.4844 52.0813,18.3438 51.7844,18.3438 C51.4875,18.3438 51.2844,18.4375 51.0656,18.75 L50.8938,18.6719 Z " fill="#000000"/><text fill="#000000" font-family="sans-serif" font-size="12" lengthAdjust="spacing" textLength="70" x="68.45" y="27.1543">MyLittleZoo</text><line style="stroke:#A80036;stroke-width:1.5;" x1="8" x2="167" y1="39" y2="39"/><line style="stroke:#A80036;stroke-width:1.5;" x1="8" x2="167" y1="47" y2="47"/><ellipse cx="18" cy="58" fill="#84BE84" rx="3" ry="3" style="stroke:#038048;stroke-width:1.0;"/><text fill="#000000" font-family="sans-serif" font-size="11" lengthAdjust="spacing" text-decoration="underline" textLength="135" x="27" y="61.2104">Main(args:string[]) : void</text><!--MD5=[63e04c9b9e4b0bcebbb01a363121b88d]
@startuml
class MyLittleZoo {
    + {static} Main(args:string[]) : void
}
@enduml

PlantUML version 1.2021.7(Sun May 23 12:40:07 UTC 2021)
(GPL source distribution)
Java Runtime: Java(TM) SE Runtime Environment
JVM: Java HotSpot(TM) 64-Bit Server VM
Default Encoding: UTF-8
Language: en
Country: US
--></g></svg>